<mxfile host="app.diagrams.net" modified="2023-10-06T10:21:54.303Z" agent="Mozilla/5.0 (Macintosh; Intel Mac OS X 10_15_7) AppleWebKit/537.36 (KHTML, like Gecko) Chrome/117.0.0.0 Safari/537.36" etag="iCVHBQ3fkVt6NwpM2eYT" version="21.2.3" type="device">
  <diagram name="Page-1" id="ENLwthfuA3gVJs66h2T4">
    <mxGraphModel dx="1434" dy="797" grid="1" gridSize="10" guides="1" tooltips="1" connect="1" arrows="1" fold="1" page="1" pageScale="1" pageWidth="2339" pageHeight="3300" math="0" shadow="0">
      <root>
        <mxCell id="0" />
        <mxCell id="1" parent="0" />
        <mxCell id="ZVWrk8P4jM0h1EElwxkv-1" value="Utilisateur" style="shape=umlActor;verticalLabelPosition=bottom;verticalAlign=top;html=1;outlineConnect=0;" parent="1" vertex="1">
          <mxGeometry x="130" y="150" width="30" height="60" as="geometry" />
        </mxCell>
        <mxCell id="ZVWrk8P4jM0h1EElwxkv-3" value="" style="endArrow=none;dashed=1;html=1;rounded=0;entryX=0.5;entryY=0.5;entryDx=0;entryDy=0;entryPerimeter=0;exitX=0.096;exitY=1;exitDx=0;exitDy=0;exitPerimeter=0;" parent="1" source="ZVWrk8P4jM0h1EElwxkv-24" target="ZVWrk8P4jM0h1EElwxkv-1" edge="1">
          <mxGeometry width="50" height="50" relative="1" as="geometry">
            <mxPoint x="150" y="810" as="sourcePoint" />
            <mxPoint x="150" y="240" as="targetPoint" />
          </mxGeometry>
        </mxCell>
        <mxCell id="ZVWrk8P4jM0h1EElwxkv-5" value="system" style="rounded=0;whiteSpace=wrap;html=1;" parent="1" vertex="1">
          <mxGeometry x="315" y="160" width="120" height="60" as="geometry" />
        </mxCell>
        <mxCell id="ZVWrk8P4jM0h1EElwxkv-6" value="" style="endArrow=none;dashed=1;html=1;rounded=0;entryX=0.5;entryY=0.5;entryDx=0;entryDy=0;entryPerimeter=0;exitX=0.341;exitY=0.999;exitDx=0;exitDy=0;exitPerimeter=0;" parent="1" source="ZVWrk8P4jM0h1EElwxkv-24" edge="1">
          <mxGeometry width="50" height="50" relative="1" as="geometry">
            <mxPoint x="377.5" y="850" as="sourcePoint" />
            <mxPoint x="372.5" y="220" as="targetPoint" />
          </mxGeometry>
        </mxCell>
        <mxCell id="ZVWrk8P4jM0h1EElwxkv-2" value="" style="html=1;points=[];perimeter=orthogonalPerimeter;outlineConnect=0;targetShapes=umlLifeline;portConstraint=eastwest;newEdgeStyle={&quot;edgeStyle&quot;:&quot;elbowEdgeStyle&quot;,&quot;elbow&quot;:&quot;vertical&quot;,&quot;curved&quot;:0,&quot;rounded&quot;:0};" parent="1" vertex="1">
          <mxGeometry x="365" y="310" width="18" height="210" as="geometry" />
        </mxCell>
        <mxCell id="ZVWrk8P4jM0h1EElwxkv-7" value="" style="endArrow=classic;html=1;rounded=0;" parent="1" target="ZVWrk8P4jM0h1EElwxkv-2" edge="1">
          <mxGeometry width="50" height="50" relative="1" as="geometry">
            <mxPoint x="146" y="310" as="sourcePoint" />
            <mxPoint x="196" y="260" as="targetPoint" />
          </mxGeometry>
        </mxCell>
        <mxCell id="ZVWrk8P4jM0h1EElwxkv-14" value="1 : Saisir ses identifiants (compte)" style="edgeLabel;html=1;align=center;verticalAlign=middle;resizable=0;points=[];" parent="ZVWrk8P4jM0h1EElwxkv-7" vertex="1" connectable="0">
          <mxGeometry x="0.3152" y="-3" relative="1" as="geometry">
            <mxPoint x="-34" y="-12" as="offset" />
          </mxGeometry>
        </mxCell>
        <mxCell id="ZVWrk8P4jM0h1EElwxkv-8" value="serveur" style="rounded=0;whiteSpace=wrap;html=1;" parent="1" vertex="1">
          <mxGeometry x="530" y="160" width="120" height="60" as="geometry" />
        </mxCell>
        <mxCell id="ZVWrk8P4jM0h1EElwxkv-9" value="" style="endArrow=none;dashed=1;html=1;rounded=0;entryX=0.5;entryY=0.5;entryDx=0;entryDy=0;entryPerimeter=0;" parent="1" source="ZVWrk8P4jM0h1EElwxkv-34" edge="1">
          <mxGeometry width="50" height="50" relative="1" as="geometry">
            <mxPoint x="592.5" y="850" as="sourcePoint" />
            <mxPoint x="587.5" y="220" as="targetPoint" />
          </mxGeometry>
        </mxCell>
        <mxCell id="ZVWrk8P4jM0h1EElwxkv-10" value="" style="html=1;points=[];perimeter=orthogonalPerimeter;outlineConnect=0;targetShapes=umlLifeline;portConstraint=eastwest;newEdgeStyle={&quot;edgeStyle&quot;:&quot;elbowEdgeStyle&quot;,&quot;elbow&quot;:&quot;vertical&quot;,&quot;curved&quot;:0,&quot;rounded&quot;:0};" parent="1" vertex="1">
          <mxGeometry x="580" y="310" width="18" height="210" as="geometry" />
        </mxCell>
        <mxCell id="ZVWrk8P4jM0h1EElwxkv-11" value="BDD" style="rounded=0;whiteSpace=wrap;html=1;" parent="1" vertex="1">
          <mxGeometry x="740" y="160" width="120" height="60" as="geometry" />
        </mxCell>
        <mxCell id="ZVWrk8P4jM0h1EElwxkv-12" value="" style="endArrow=none;dashed=1;html=1;rounded=0;entryX=0.5;entryY=0.5;entryDx=0;entryDy=0;entryPerimeter=0;" parent="1" source="ZVWrk8P4jM0h1EElwxkv-35" edge="1">
          <mxGeometry width="50" height="50" relative="1" as="geometry">
            <mxPoint x="802.5" y="850" as="sourcePoint" />
            <mxPoint x="797.5" y="220" as="targetPoint" />
          </mxGeometry>
        </mxCell>
        <mxCell id="ZVWrk8P4jM0h1EElwxkv-13" value="" style="html=1;points=[];perimeter=orthogonalPerimeter;outlineConnect=0;targetShapes=umlLifeline;portConstraint=eastwest;newEdgeStyle={&quot;edgeStyle&quot;:&quot;elbowEdgeStyle&quot;,&quot;elbow&quot;:&quot;vertical&quot;,&quot;curved&quot;:0,&quot;rounded&quot;:0};" parent="1" vertex="1">
          <mxGeometry x="790" y="310" width="18" height="210" as="geometry" />
        </mxCell>
        <mxCell id="ZVWrk8P4jM0h1EElwxkv-15" value="" style="endArrow=classic;html=1;rounded=0;" parent="1" target="ZVWrk8P4jM0h1EElwxkv-10" edge="1">
          <mxGeometry width="50" height="50" relative="1" as="geometry">
            <mxPoint x="385" y="330" as="sourcePoint" />
            <mxPoint x="540" y="330" as="targetPoint" />
          </mxGeometry>
        </mxCell>
        <mxCell id="ZVWrk8P4jM0h1EElwxkv-16" value="1.1 : Authentification (compte)" style="text;html=1;align=center;verticalAlign=middle;resizable=0;points=[];autosize=1;strokeColor=none;fillColor=none;" parent="1" vertex="1">
          <mxGeometry x="388" y="305" width="180" height="30" as="geometry" />
        </mxCell>
        <mxCell id="ZVWrk8P4jM0h1EElwxkv-17" value="Envoie requête base users" style="text;html=1;align=center;verticalAlign=middle;resizable=0;points=[];autosize=1;strokeColor=none;fillColor=none;" parent="1" vertex="1">
          <mxGeometry x="609" y="318" width="170" height="30" as="geometry" />
        </mxCell>
        <mxCell id="ZVWrk8P4jM0h1EElwxkv-18" value="" style="endArrow=classic;html=1;rounded=0;" parent="1" target="ZVWrk8P4jM0h1EElwxkv-13" edge="1">
          <mxGeometry width="50" height="50" relative="1" as="geometry">
            <mxPoint x="600" y="345" as="sourcePoint" />
            <mxPoint x="650" y="295" as="targetPoint" />
          </mxGeometry>
        </mxCell>
        <mxCell id="ZVWrk8P4jM0h1EElwxkv-20" value="Vérification utilisateur" style="html=1;align=left;spacingLeft=2;endArrow=block;rounded=0;edgeStyle=orthogonalEdgeStyle;curved=0;rounded=0;" parent="1" edge="1">
          <mxGeometry relative="1" as="geometry">
            <mxPoint x="808" y="345" as="sourcePoint" />
            <Array as="points">
              <mxPoint x="838" y="375" />
            </Array>
            <mxPoint x="813" y="375" as="targetPoint" />
          </mxGeometry>
        </mxCell>
        <mxCell id="ZVWrk8P4jM0h1EElwxkv-23" value="[ Si compte existant ]" style="text;html=1;strokeColor=none;fillColor=none;align=center;verticalAlign=middle;whiteSpace=wrap;rounded=0;" parent="1" vertex="1">
          <mxGeometry x="144" y="431" width="170" height="30" as="geometry" />
        </mxCell>
        <mxCell id="ZVWrk8P4jM0h1EElwxkv-24" value="Alt" style="shape=umlFrame;whiteSpace=wrap;html=1;pointerEvents=0;" parent="1" vertex="1">
          <mxGeometry x="60" y="430" width="930" height="390" as="geometry" />
        </mxCell>
        <mxCell id="ZVWrk8P4jM0h1EElwxkv-25" value="" style="endArrow=classic;html=1;rounded=0;" parent="1" target="ZVWrk8P4jM0h1EElwxkv-10" edge="1">
          <mxGeometry width="50" height="50" relative="1" as="geometry">
            <mxPoint x="790" y="470" as="sourcePoint" />
            <mxPoint x="610" y="470" as="targetPoint" />
          </mxGeometry>
        </mxCell>
        <mxCell id="ZVWrk8P4jM0h1EElwxkv-26" value="Envoie les informations de&lt;br&gt;l&#39;utilisateur" style="text;html=1;align=center;verticalAlign=middle;resizable=0;points=[];autosize=1;strokeColor=none;fillColor=none;" parent="1" vertex="1">
          <mxGeometry x="615" y="435" width="160" height="40" as="geometry" />
        </mxCell>
        <mxCell id="ZVWrk8P4jM0h1EElwxkv-27" value="" style="endArrow=classic;html=1;rounded=0;" parent="1" target="ZVWrk8P4jM0h1EElwxkv-2" edge="1">
          <mxGeometry width="50" height="50" relative="1" as="geometry">
            <mxPoint x="580" y="485" as="sourcePoint" />
            <mxPoint x="390" y="485" as="targetPoint" />
          </mxGeometry>
        </mxCell>
        <mxCell id="ZVWrk8P4jM0h1EElwxkv-28" value="Affiche la page d&#39;accueil" style="text;html=1;align=center;verticalAlign=middle;resizable=0;points=[];autosize=1;strokeColor=none;fillColor=none;" parent="1" vertex="1">
          <mxGeometry x="410" y="455" width="150" height="30" as="geometry" />
        </mxCell>
        <mxCell id="ZVWrk8P4jM0h1EElwxkv-29" value="" style="endArrow=classic;html=1;rounded=0;" parent="1" edge="1">
          <mxGeometry width="50" height="50" relative="1" as="geometry">
            <mxPoint x="365" y="510" as="sourcePoint" />
            <mxPoint x="150" y="510" as="targetPoint" />
          </mxGeometry>
        </mxCell>
        <mxCell id="ZVWrk8P4jM0h1EElwxkv-30" value="2 : Accès à la page d&#39;accueil" style="text;html=1;align=center;verticalAlign=middle;resizable=0;points=[];autosize=1;strokeColor=none;fillColor=none;" parent="1" vertex="1">
          <mxGeometry x="173" y="480" width="170" height="30" as="geometry" />
        </mxCell>
        <mxCell id="ZVWrk8P4jM0h1EElwxkv-31" value="" style="endArrow=none;dashed=1;html=1;rounded=0;entryX=1;entryY=0.223;entryDx=0;entryDy=0;entryPerimeter=0;" parent="1" edge="1">
          <mxGeometry width="50" height="50" relative="1" as="geometry">
            <mxPoint x="60" y="542" as="sourcePoint" />
            <mxPoint x="990" y="541.48" as="targetPoint" />
          </mxGeometry>
        </mxCell>
        <mxCell id="ZVWrk8P4jM0h1EElwxkv-32" value="[ Si le compte n&#39;existe pas ]" style="text;html=1;strokeColor=none;fillColor=none;align=center;verticalAlign=middle;whiteSpace=wrap;rounded=0;" parent="1" vertex="1">
          <mxGeometry x="145" y="550" width="170" height="30" as="geometry" />
        </mxCell>
        <mxCell id="ZVWrk8P4jM0h1EElwxkv-33" value="" style="html=1;points=[];perimeter=orthogonalPerimeter;outlineConnect=0;targetShapes=umlLifeline;portConstraint=eastwest;newEdgeStyle={&quot;edgeStyle&quot;:&quot;elbowEdgeStyle&quot;,&quot;elbow&quot;:&quot;vertical&quot;,&quot;curved&quot;:0,&quot;rounded&quot;:0};" parent="1" vertex="1">
          <mxGeometry x="367" y="551" width="18" height="239" as="geometry" />
        </mxCell>
        <mxCell id="ZVWrk8P4jM0h1EElwxkv-36" value="" style="endArrow=none;dashed=1;html=1;rounded=0;entryX=0.5;entryY=0.5;entryDx=0;entryDy=0;entryPerimeter=0;exitX=0.796;exitY=0.999;exitDx=0;exitDy=0;exitPerimeter=0;" parent="1" source="ZVWrk8P4jM0h1EElwxkv-24" target="ZVWrk8P4jM0h1EElwxkv-35" edge="1">
          <mxGeometry width="50" height="50" relative="1" as="geometry">
            <mxPoint x="802.5" y="850" as="sourcePoint" />
            <mxPoint x="797.5" y="220" as="targetPoint" />
          </mxGeometry>
        </mxCell>
        <mxCell id="ZVWrk8P4jM0h1EElwxkv-35" value="" style="html=1;points=[];perimeter=orthogonalPerimeter;outlineConnect=0;targetShapes=umlLifeline;portConstraint=eastwest;newEdgeStyle={&quot;edgeStyle&quot;:&quot;elbowEdgeStyle&quot;,&quot;elbow&quot;:&quot;vertical&quot;,&quot;curved&quot;:0,&quot;rounded&quot;:0};" parent="1" vertex="1">
          <mxGeometry x="789" y="550" width="18" height="250" as="geometry" />
        </mxCell>
        <mxCell id="ZVWrk8P4jM0h1EElwxkv-37" value="" style="endArrow=none;dashed=1;html=1;rounded=0;entryX=0.5;entryY=0.5;entryDx=0;entryDy=0;entryPerimeter=0;exitX=0.571;exitY=0.999;exitDx=0;exitDy=0;exitPerimeter=0;" parent="1" source="ZVWrk8P4jM0h1EElwxkv-24" target="ZVWrk8P4jM0h1EElwxkv-34" edge="1">
          <mxGeometry width="50" height="50" relative="1" as="geometry">
            <mxPoint x="592.5" y="850" as="sourcePoint" />
            <mxPoint x="587.5" y="220" as="targetPoint" />
          </mxGeometry>
        </mxCell>
        <mxCell id="ZVWrk8P4jM0h1EElwxkv-34" value="" style="html=1;points=[];perimeter=orthogonalPerimeter;outlineConnect=0;targetShapes=umlLifeline;portConstraint=eastwest;newEdgeStyle={&quot;edgeStyle&quot;:&quot;elbowEdgeStyle&quot;,&quot;elbow&quot;:&quot;vertical&quot;,&quot;curved&quot;:0,&quot;rounded&quot;:0};" parent="1" vertex="1">
          <mxGeometry x="581" y="550" width="18" height="240" as="geometry" />
        </mxCell>
        <mxCell id="ZVWrk8P4jM0h1EElwxkv-39" value="" style="endArrow=classic;html=1;rounded=0;" parent="1" edge="1">
          <mxGeometry width="50" height="50" relative="1" as="geometry">
            <mxPoint x="789" y="598" as="sourcePoint" />
            <mxPoint x="600" y="598" as="targetPoint" />
          </mxGeometry>
        </mxCell>
        <mxCell id="ZVWrk8P4jM0h1EElwxkv-40" value="Ne renvoie aucune information" style="text;html=1;align=center;verticalAlign=middle;resizable=0;points=[];autosize=1;strokeColor=none;fillColor=none;" parent="1" vertex="1">
          <mxGeometry x="600" y="567" width="190" height="30" as="geometry" />
        </mxCell>
        <mxCell id="ZVWrk8P4jM0h1EElwxkv-44" value="" style="endArrow=classic;html=1;rounded=0;" parent="1" target="ZVWrk8P4jM0h1EElwxkv-33" edge="1">
          <mxGeometry width="50" height="50" relative="1" as="geometry">
            <mxPoint x="580" y="611" as="sourcePoint" />
            <mxPoint x="391" y="611" as="targetPoint" />
          </mxGeometry>
        </mxCell>
        <mxCell id="ZVWrk8P4jM0h1EElwxkv-45" value="Affiche un message d&#39;erreur" style="text;html=1;align=center;verticalAlign=middle;resizable=0;points=[];autosize=1;strokeColor=none;fillColor=none;" parent="1" vertex="1">
          <mxGeometry x="401" y="580" width="170" height="30" as="geometry" />
        </mxCell>
        <mxCell id="ZVWrk8P4jM0h1EElwxkv-46" value="" style="endArrow=classic;html=1;rounded=0;" parent="1" source="ZVWrk8P4jM0h1EElwxkv-33" edge="1">
          <mxGeometry width="50" height="50" relative="1" as="geometry">
            <mxPoint x="367" y="628" as="sourcePoint" />
            <mxPoint x="150" y="630" as="targetPoint" />
          </mxGeometry>
        </mxCell>
        <mxCell id="ZVWrk8P4jM0h1EElwxkv-47" value="2 : N&#39;est pas authentifié" style="text;html=1;align=center;verticalAlign=middle;resizable=0;points=[];autosize=1;strokeColor=none;fillColor=none;" parent="1" vertex="1">
          <mxGeometry x="183" y="597" width="150" height="30" as="geometry" />
        </mxCell>
        <mxCell id="ZVWrk8P4jM0h1EElwxkv-48" value="" style="endArrow=classic;html=1;rounded=0;" parent="1" edge="1">
          <mxGeometry width="50" height="50" relative="1" as="geometry">
            <mxPoint x="148.5" y="670" as="sourcePoint" />
            <mxPoint x="367.5" y="670" as="targetPoint" />
          </mxGeometry>
        </mxCell>
        <mxCell id="ZVWrk8P4jM0h1EElwxkv-49" value="3 : Renseigne ses informations (compte)" style="edgeLabel;html=1;align=center;verticalAlign=middle;resizable=0;points=[];" parent="ZVWrk8P4jM0h1EElwxkv-48" vertex="1" connectable="0">
          <mxGeometry x="0.3152" y="-3" relative="1" as="geometry">
            <mxPoint x="-34" y="-12" as="offset" />
          </mxGeometry>
        </mxCell>
        <mxCell id="ZVWrk8P4jM0h1EElwxkv-50" value="" style="endArrow=classic;html=1;rounded=0;" parent="1" edge="1">
          <mxGeometry width="50" height="50" relative="1" as="geometry">
            <mxPoint x="385" y="685" as="sourcePoint" />
            <mxPoint x="580" y="685" as="targetPoint" />
          </mxGeometry>
        </mxCell>
        <mxCell id="ZVWrk8P4jM0h1EElwxkv-51" value="3.1 : Inscription (compte)" style="text;html=1;align=center;verticalAlign=middle;resizable=0;points=[];autosize=1;strokeColor=none;fillColor=none;" parent="1" vertex="1">
          <mxGeometry x="398" y="660" width="160" height="30" as="geometry" />
        </mxCell>
        <mxCell id="ZVWrk8P4jM0h1EElwxkv-52" value="Envoie requête base users" style="text;html=1;align=center;verticalAlign=middle;resizable=0;points=[];autosize=1;strokeColor=none;fillColor=none;" parent="1" vertex="1">
          <mxGeometry x="609" y="671" width="170" height="30" as="geometry" />
        </mxCell>
        <mxCell id="ZVWrk8P4jM0h1EElwxkv-53" value="" style="endArrow=classic;html=1;rounded=0;" parent="1" edge="1">
          <mxGeometry width="50" height="50" relative="1" as="geometry">
            <mxPoint x="600" y="698" as="sourcePoint" />
            <mxPoint x="790" y="698" as="targetPoint" />
          </mxGeometry>
        </mxCell>
        <mxCell id="ZVWrk8P4jM0h1EElwxkv-54" value="Ajout du nouvel utilisateur" style="html=1;align=left;spacingLeft=2;endArrow=block;rounded=0;edgeStyle=orthogonalEdgeStyle;curved=0;rounded=0;" parent="1" edge="1">
          <mxGeometry relative="1" as="geometry">
            <mxPoint x="808" y="711" as="sourcePoint" />
            <Array as="points">
              <mxPoint x="838" y="711" />
              <mxPoint x="838" y="741" />
            </Array>
            <mxPoint x="807" y="741.0000000000001" as="targetPoint" />
          </mxGeometry>
        </mxCell>
        <mxCell id="ZVWrk8P4jM0h1EElwxkv-55" value="" style="endArrow=classic;html=1;rounded=0;" parent="1" target="ZVWrk8P4jM0h1EElwxkv-34" edge="1">
          <mxGeometry width="50" height="50" relative="1" as="geometry">
            <mxPoint x="789" y="745" as="sourcePoint" />
            <mxPoint x="597" y="745" as="targetPoint" />
          </mxGeometry>
        </mxCell>
        <mxCell id="ZVWrk8P4jM0h1EElwxkv-56" value="Envoie les informations de&lt;br&gt;l&#39;utilisateur" style="text;html=1;align=center;verticalAlign=middle;resizable=0;points=[];autosize=1;strokeColor=none;fillColor=none;" parent="1" vertex="1">
          <mxGeometry x="614" y="710" width="160" height="40" as="geometry" />
        </mxCell>
        <mxCell id="ZVWrk8P4jM0h1EElwxkv-57" value="" style="endArrow=classic;html=1;rounded=0;" parent="1" edge="1">
          <mxGeometry width="50" height="50" relative="1" as="geometry">
            <mxPoint x="580" y="764.23" as="sourcePoint" />
            <mxPoint x="383" y="764.23" as="targetPoint" />
          </mxGeometry>
        </mxCell>
        <mxCell id="ZVWrk8P4jM0h1EElwxkv-58" value="Affiche la page d&#39;accueil" style="text;html=1;align=center;verticalAlign=middle;resizable=0;points=[];autosize=1;strokeColor=none;fillColor=none;" parent="1" vertex="1">
          <mxGeometry x="410" y="734.23" width="150" height="30" as="geometry" />
        </mxCell>
        <mxCell id="ZVWrk8P4jM0h1EElwxkv-59" value="" style="endArrow=classic;html=1;rounded=0;" parent="1" edge="1">
          <mxGeometry width="50" height="50" relative="1" as="geometry">
            <mxPoint x="365" y="773.23" as="sourcePoint" />
            <mxPoint x="150" y="773.23" as="targetPoint" />
          </mxGeometry>
        </mxCell>
        <mxCell id="ZVWrk8P4jM0h1EElwxkv-60" value="4 : Accès à la page d&#39;accueil" style="text;html=1;align=center;verticalAlign=middle;resizable=0;points=[];autosize=1;strokeColor=none;fillColor=none;" parent="1" vertex="1">
          <mxGeometry x="173" y="743.23" width="170" height="30" as="geometry" />
        </mxCell>
      </root>
    </mxGraphModel>
  </diagram>
</mxfile>
